solid
facet normal 0.7417481 -0.04153471 0.66939116
 outer loop
  vertex 29.10892 4.7683713e-07 69.48767
  vertex 26.92417 -39.0165 69.48766
  vertex 64.42416 -23.483496 28.897968
 endloop
endfacet
facet normal 0.6983545 -0.15685193 0.6983541
 outer loop
  vertex 29.10892 4.7683713e-07 69.48767
  vertex 64.42416 -23.483496 28.897968
  vertex 69.6986 0 28.897968
 endloop
endfacet
facet normal 5.670307e-07 2.0314046e-08 1
 outer loop
  vertex -28.29358 -1.7881392e-06 69.48769
  vertex -26.108828 -60.983482 69.48769
  vertex 26.92417 -39.0165 69.48766
 endloop
endfacet
facet normal 3.987315e-07 -2.1786997e-07 1
 outer loop
  vertex -28.29358 -1.7881392e-06 69.48769
  vertex 26.92417 -39.0165 69.48766
  vertex 29.10892 4.7683713e-07 69.48767
 endloop
endfacet
facet normal -0.724002 -0.04990705 0.6879901
 outer loop
  vertex -68.88331 0 28.898003
  vertex -63.608852 -76.5165 28.898008
  vertex -26.108828 -60.983482 69.48769
 endloop
endfacet
facet normal -0.7068796 -0.025324175 0.70688033
 outer loop
  vertex -68.88331 0 28.898003
  vertex -26.108828 -60.983482 69.48769
  vertex -28.29358 -1.7881392e-06 69.48769
 endloop
endfacet
facet normal -0.9976326 -0.06876917 2.7433168e-07
 outer loop
  vertex -68.88333 0 -28.50452
  vertex -63.608868 -76.51651 -28.504517
  vertex -63.608852 -76.5165 28.898008
 endloop
endfacet
facet normal -0.9976326 -0.068769075 4.0203383e-07
 outer loop
  vertex -68.88333 0 -28.50452
  vertex -63.608852 -76.5165 28.898008
  vertex -68.88331 0 28.898003
 endloop
endfacet
facet normal -0.7292559 -0.026125757 -0.68374205
 outer loop
  vertex -28.293627 4.7683713e-07 -69.09424
  vertex -26.10888 -60.9835 -69.09424
  vertex -63.608868 -76.51651 -28.504517
 endloop
endfacet
facet normal -0.7062685 -0.048684787 -0.7062682
 outer loop
  vertex -28.293627 4.7683713e-07 -69.09424
  vertex -63.608868 -76.51651 -28.504517
  vertex -68.88333 0 -28.50452
 endloop
endfacet
facet normal -3.7747412e-07 2.1667965e-07 -1
 outer loop
  vertex 29.108892 3.5762784e-07 -69.094246
  vertex 26.924137 -39.01651 -69.09425
  vertex -26.10888 -60.9835 -69.09424
 endloop
endfacet
facet normal -1.3291044e-07 -4.7615467e-09 -1
 outer loop
  vertex 29.108892 3.5762784e-07 -69.094246
  vertex -26.10888 -60.9835 -69.09424
  vertex -28.293627 4.7683713e-07 -69.09424
 endloop
endfacet
facet normal 0.75537443 -0.16965884 -0.63294965
 outer loop
  vertex 69.6986 4.7683713e-07 -28.504547
  vertex 64.42415 -23.483496 -28.504553
  vertex 26.924137 -39.01651 -69.09425
 endloop
endfacet
facet normal 0.7065531 -0.039563768 -0.7065532
 outer loop
  vertex 69.6986 4.7683713e-07 -28.504547
  vertex 26.924137 -39.01651 -69.09425
  vertex 29.108892 3.5762784e-07 -69.094246
 endloop
endfacet
facet normal 0.9756928 -0.21914275 -1.2967978e-07
 outer loop
  vertex 69.6986 0 28.897968
  vertex 64.42416 -23.483496 28.897968
  vertex 64.42415 -23.483496 -28.504553
 endloop
endfacet
facet normal 0.97569275 -0.21914303 0
 outer loop
  vertex 69.6986 0 28.897968
  vertex 64.42415 -23.483496 -28.504553
  vertex 69.6986 4.7683713e-07 -28.504547
 endloop
endfacet
facet normal 0.51937675 0.51937675 0.67859817
 outer loop
  vertex 26.92417 -39.0165 69.48766
  vertex 121.39115 -133.48347 69.48766
  vertex 136.92415 -95.9835 28.897968
 endloop
endfacet
facet normal 0.5193767 0.5193767 0.6785983
 outer loop
  vertex 26.92417 -39.0165 69.48766
  vertex 136.92415 -95.9835 28.897968
  vertex 64.42416 -23.483496 28.897968
 endloop
endfacet
facet normal 4.0690108e-07 4.0690108e-07 1
 outer loop
  vertex -26.108828 -60.983482 69.48769
  vertex 99.424164 -186.51648 69.48769
  vertex 121.39115 -133.48347 69.48766
 endloop
endfacet
facet normal 4.069011e-07 4.069011e-07 1
 outer loop
  vertex -26.108828 -60.983482 69.48769
  vertex 121.39115 -133.48347 69.48766
  vertex 26.92417 -39.0165 69.48766
 endloop
endfacet
facet normal -0.51937646 -0.5193766 0.6785985
 outer loop
  vertex -63.608852 -76.5165 28.898008
  vertex 83.89115 -224.01648 28.898006
  vertex 99.424164 -186.51648 69.48769
 endloop
endfacet
facet normal -0.51937634 -0.5193763 0.6785988
 outer loop
  vertex -63.608852 -76.5165 28.898008
  vertex 99.424164 -186.51648 69.48769
  vertex -26.108828 -60.983482 69.48769
 endloop
endfacet
facet normal -0.7071068 -0.7071068 5.6389126e-07
 outer loop
  vertex -63.608868 -76.51651 -28.504517
  vertex 83.891136 -224.01651 -28.504517
  vertex 83.89115 -224.01648 28.898006
 endloop
endfacet
facet normal -0.7071067 -0.7071069 1.6311432e-07
 outer loop
  vertex -63.608868 -76.51651 -28.504517
  vertex 83.89115 -224.01648 28.898006
  vertex -63.608852 -76.5165 28.898008
 endloop
endfacet
facet normal -0.5193768 -0.5193769 -0.6785982
 outer loop
  vertex -26.10888 -60.9835 -69.09424
  vertex 99.42414 -186.51653 -69.09423
  vertex 83.891136 -224.01651 -28.504517
 endloop
endfacet
facet normal -0.5193768 -0.5193768 -0.67859817
 outer loop
  vertex -26.10888 -60.9835 -69.09424
  vertex 83.891136 -224.01651 -28.504517
  vertex -63.608868 -76.51651 -28.504517
 endloop
endfacet
facet normal -1.4634273e-07 -2.2710528e-07 -1
 outer loop
  vertex 26.924137 -39.01651 -69.09425
  vertex 121.391136 -133.4835 -69.094246
  vertex 99.42414 -186.51653 -69.09423
 endloop
endfacet
facet normal -1.8564958e-07 -2.4642557e-07 -1
 outer loop
  vertex 26.924137 -39.01651 -69.09425
  vertex 99.42414 -186.51653 -69.09423
  vertex -26.10888 -60.9835 -69.09424
 endloop
endfacet
facet normal 0.51937664 0.5193766 -0.6785984
 outer loop
  vertex 64.42415 -23.483496 -28.504553
  vertex 136.92415 -95.983505 -28.504549
  vertex 121.391136 -133.4835 -69.094246
 endloop
endfacet
facet normal 0.51937664 0.5193766 -0.6785985
 outer loop
  vertex 64.42415 -23.483496 -28.504553
  vertex 121.391136 -133.4835 -69.094246
  vertex 26.924137 -39.01651 -69.09425
 endloop
endfacet
facet normal 0.7071068 0.7071067 -9.3981875e-08
 outer loop
  vertex 64.42416 -23.483496 28.897968
  vertex 136.92415 -95.9835 28.897968
  vertex 136.92415 -95.983505 -28.504549
 endloop
endfacet
facet normal 0.7071068 0.70710677 -8.2963304e-08
 outer loop
  vertex 64.42416 -23.483496 28.897968
  vertex 136.92415 -95.983505 -28.504549
  vertex 64.42415 -23.483496 -28.504553
 endloop
endfacet
facet normal -0.039564047 0.7065533 0.706553
 outer loop
  vertex 121.39115 -133.48347 69.48766
  vertex 160.40764 -131.29872 69.48767
  vertex 160.40764 -90.70903 28.897964
 endloop
endfacet
facet normal -0.1696595 0.7553747 0.6329492
 outer loop
  vertex 121.39115 -133.48347 69.48766
  vertex 160.40764 -90.70903 28.897964
  vertex 136.92415 -95.9835 28.897968
 endloop
endfacet
facet normal 1.42845895e-08 3.987315e-07 1
 outer loop
  vertex 99.424164 -186.51648 69.48769
  vertex 160.40764 -188.70122 69.48769
  vertex 160.40764 -131.29872 69.48767
 endloop
endfacet
facet normal -2.3317354e-07 6.7202865e-07 1
 outer loop
  vertex 99.424164 -186.51648 69.48769
  vertex 160.40764 -131.29872 69.48767
  vertex 121.39115 -133.48347 69.48766
 endloop
endfacet
facet normal -0.048684847 -0.70626783 0.7062688
 outer loop
  vertex 83.89115 -224.01648 28.898006
  vertex 160.40764 -229.29095 28.898008
  vertex 160.40764 -188.70122 69.48769
 endloop
endfacet
facet normal -0.026125642 -0.72925556 0.68374246
 outer loop
  vertex 83.89115 -224.01648 28.898006
  vertex 160.40764 -188.70122 69.48769
  vertex 99.424164 -186.51648 69.48769
 endloop
endfacet
facet normal -0.06876932 -0.9976326 5.3038315e-07
 outer loop
  vertex 83.891136 -224.01651 -28.504517
  vertex 160.40764 -229.29099 -28.504513
  vertex 160.40764 -229.29095 28.898008
 endloop
endfacet
facet normal -0.068769336 -0.9976326 5.475979e-07
 outer loop
  vertex 83.891136 -224.01651 -28.504517
  vertex 160.40764 -229.29095 28.898008
  vertex 83.89115 -224.01648 28.898006
 endloop
endfacet
facet normal -0.0253243 -0.7068802 -0.70687985
 outer loop
  vertex 99.42414 -186.51653 -69.09423
  vertex 160.40764 -188.70128 -69.09424
  vertex 160.40764 -229.29099 -28.504513
 endloop
endfacet
facet normal -0.049907286 -0.7240026 -0.6879895
 outer loop
  vertex 99.42414 -186.51653 -69.09423
  vertex 160.40764 -229.29099 -28.504513
  vertex 83.891136 -224.01651 -28.504517
 endloop
endfacet
facet normal -3.6875832e-07 -3.9873132e-07 -1
 outer loop
  vertex 121.391136 -133.4835 -69.094246
  vertex 160.40764 -131.29875 -69.09426
  vertex 160.40764 -188.70128 -69.09424
 endloop
endfacet
facet normal -1.3343357e-07 -2.3245242e-07 -1
 outer loop
  vertex 121.391136 -133.4835 -69.094246
  vertex 160.40764 -188.70128 -69.09424
  vertex 99.42414 -186.51653 -69.09423
 endloop
endfacet
facet normal -0.15685286 0.69835407 -0.6983543
 outer loop
  vertex 136.92415 -95.983505 -28.504549
  vertex 160.40764 -90.70904 -28.504559
  vertex 160.40764 -131.29875 -69.09426
 endloop
endfacet
facet normal -0.04153491 0.74174803 -0.6693913
 outer loop
  vertex 136.92415 -95.983505 -28.504549
  vertex 160.40764 -131.29875 -69.09426
  vertex 121.391136 -133.4835 -69.094246
 endloop
endfacet
facet normal -0.21914369 0.9756926 -1.2967972e-07
 outer loop
  vertex 136.92415 -95.9835 28.897968
  vertex 160.40764 -90.70903 28.897964
  vertex 160.40764 -90.70904 -28.504559
 endloop
endfacet
facet normal -0.2191437 0.97569263 -1.3253201e-07
 outer loop
  vertex 136.92415 -95.9835 28.897968
  vertex 160.40764 -90.70904 -28.504559
  vertex 136.92415 -95.983505 -28.504549
 endloop
endfacet
endsolid
