solid
facet normal 0.7411891 -0.03802287 0.6702185
 outer loop
  vertex 27.195505 -4.7683713e-07 64.86827
  vertex 25.156403 -39.74873 64.86827
  vertex 60.156384 -25.25126 26.98455
 endloop
endfacet
facet normal 0.70048237 -0.13656184 0.70048225
 outer loop
  vertex 27.195505 -4.7683713e-07 64.86827
  vertex 60.156384 -25.25126 26.98455
  vertex 65.079216 0 26.984552
 endloop
endfacet
facet normal 5.077438e-07 -1.0944257e-07 1
 outer loop
  vertex -26.380167 -1.4305114e-06 64.8683
  vertex -24.341063 -60.25125 64.86829
  vertex 25.156403 -39.74873 64.86827
 endloop
endfacet
facet normal 5.696163e-07 -2.9221214e-08 1
 outer loop
  vertex -26.380167 -1.4305114e-06 64.8683
  vertex 25.156403 -39.74873 64.86827
  vertex 27.195505 -4.7683713e-07 64.86827
 endloop
endfacet
facet normal -0.7245052 -0.04771459 0.6876158
 outer loop
  vertex -64.2639 9.5367426e-07 26.984583
  vertex -59.341084 -74.74873 26.984585
  vertex -24.341063 -60.25125 64.86829
 endloop
endfacet
facet normal -0.7069043 -0.023924103 0.70690453
 outer loop
  vertex -64.2639 9.5367426e-07 26.984583
  vertex -24.341063 -60.25125 64.86829
  vertex -26.380167 -1.4305114e-06 64.8683
 endloop
endfacet
facet normal -0.9978384 -0.06571589 5.06695e-07
 outer loop
  vertex -64.26393 0 -26.591103
  vertex -59.34111 -74.74874 -26.5911
  vertex -59.341084 -74.74873 26.984585
 endloop
endfacet
facet normal -0.9978384 -0.06571584 5.626916e-07
 outer loop
  vertex -64.26393 0 -26.591103
  vertex -59.341084 -74.74873 26.984585
  vertex -64.2639 9.5367426e-07 26.984583
 endloop
endfacet
facet normal -0.7295584 -0.024690723 -0.68347275
 outer loop
  vertex -26.380217 4.7683713e-07 -64.47484
  vertex -24.34111 -60.251266 -64.47484
  vertex -59.34111 -74.74874 -26.5911
 endloop
endfacet
facet normal -0.70634145 -0.046518434 -0.7063411
 outer loop
  vertex -26.380217 4.7683713e-07 -64.47484
  vertex -59.34111 -74.74874 -26.5911
  vertex -64.26393 0 -26.591103
 endloop
endfacet
facet normal -5.536806e-07 2.2034426e-07 -1
 outer loop
  vertex 27.195477 -2.3841856e-07 -64.47485
  vertex 25.156372 -39.74874 -64.47486
  vertex -24.34111 -60.251266 -64.47484
 endloop
endfacet
facet normal -2.8480807e-07 -9.6388675e-09 -1
 outer loop
  vertex 27.195477 -2.3841856e-07 -64.47485
  vertex -24.34111 -60.251266 -64.47484
  vertex -26.380217 4.7683713e-07 -64.47484
 endloop
endfacet
facet normal 0.75393397 -0.14698228 -0.64029664
 outer loop
  vertex 65.07921 4.7683713e-07 -26.591133
  vertex 60.15638 -25.25126 -26.591133
  vertex 25.156372 -39.74874 -64.47486
 endloop
endfacet
facet normal 0.706642 -0.03625049 -0.70664215
 outer loop
  vertex 65.07921 4.7683713e-07 -26.591133
  vertex 25.156372 -39.74874 -64.47486
  vertex 27.195477 -2.3841856e-07 -64.47485
 endloop
endfacet
facet normal 0.98152155 -0.19135149 -6.9886326e-08
 outer loop
  vertex 65.079216 0 26.984552
  vertex 60.156384 -25.25126 26.98455
  vertex 60.15638 -25.25126 -26.591133
 endloop
endfacet
facet normal 0.98152155 -0.19135134 -1.3838186e-07
 outer loop
  vertex 65.079216 0 26.984552
  vertex 60.15638 -25.25126 -26.591133
  vertex 65.07921 4.7683713e-07 -26.591133
 endloop
endfacet
facet normal 0.51937675 0.51937675 0.6785982
 outer loop
  vertex 25.156403 -39.74873 64.86827
  vertex 120.65892 -135.25125 64.86827
  vertex 135.15639 -100.25127 26.98455
 endloop
endfacet
facet normal 0.51937675 0.51937675 0.67859834
 outer loop
  vertex 25.156403 -39.74873 64.86827
  vertex 135.15639 -100.25127 26.98455
  vertex 60.156384 -25.25126 26.98455
 endloop
endfacet
facet normal 3.2697415e-07 3.2697415e-07 1
 outer loop
  vertex -24.341063 -60.25125 64.86829
  vertex 100.1564 -184.74872 64.86829
  vertex 120.65892 -135.25125 64.86827
 endloop
endfacet
facet normal 3.2697417e-07 3.2697417e-07 1
 outer loop
  vertex -24.341063 -60.25125 64.86829
  vertex 120.65892 -135.25125 64.86827
  vertex 25.156403 -39.74873 64.86827
 endloop
endfacet
facet normal -0.5193765 -0.5193766 0.67859864
 outer loop
  vertex -59.341084 -74.74873 26.984585
  vertex 85.65891 -219.74872 26.984583
  vertex 100.1564 -184.74872 64.86829
 endloop
endfacet
facet normal -0.5193764 -0.5193764 0.6785987
 outer loop
  vertex -59.341084 -74.74873 26.984585
  vertex 100.1564 -184.74872 64.86829
  vertex -24.341063 -60.25125 64.86829
 endloop
endfacet
facet normal -0.7071067 -0.7071068 5.034744e-07
 outer loop
  vertex -59.34111 -74.74874 -26.5911
  vertex 85.658905 -219.74875 -26.591099
  vertex 85.65891 -219.74872 26.984583
 endloop
endfacet
facet normal -0.70710677 -0.7071068 5.333356e-07
 outer loop
  vertex -59.34111 -74.74874 -26.5911
  vertex 85.65891 -219.74872 26.984583
  vertex -59.341084 -74.74873 26.984585
 endloop
endfacet
facet normal -0.5193767 -0.51937675 -0.6785983
 outer loop
  vertex -24.34111 -60.251266 -64.47484
  vertex 100.15637 -184.74875 -64.47483
  vertex 85.658905 -219.74875 -26.591099
 endloop
endfacet
facet normal -0.5193767 -0.5193768 -0.6785983
 outer loop
  vertex -24.34111 -60.251266 -64.47484
  vertex 85.658905 -219.74875 -26.591099
  vertex -59.34111 -74.74874 -26.5911
 endloop
endfacet
facet normal -1.05005604e-07 -2.647793e-07 -1
 outer loop
  vertex 25.156372 -39.74874 -64.47486
  vertex 120.658905 -135.25127 -64.474846
  vertex 100.15637 -184.74875 -64.47483
 endloop
endfacet
facet normal -3.0902513e-07 -3.7030665e-07 -1
 outer loop
  vertex 25.156372 -39.74874 -64.47486
  vertex 100.15637 -184.74875 -64.47483
  vertex -24.34111 -60.251266 -64.47484
 endloop
endfacet
facet normal 0.51937664 0.5193766 -0.6785985
 outer loop
  vertex 60.15638 -25.25126 -26.591133
  vertex 135.15639 -100.25127 -26.59113
  vertex 120.658905 -135.25127 -64.474846
 endloop
endfacet
facet normal 0.51937664 0.5193766 -0.67859846
 outer loop
  vertex 60.15638 -25.25126 -26.591133
  vertex 120.658905 -135.25127 -64.474846
  vertex 25.156372 -39.74874 -64.47486
 endloop
endfacet
facet normal 0.7071069 0.70710677 -0
 outer loop
  vertex 60.156384 -25.25126 26.98455
  vertex 135.15639 -100.25127 26.98455
  vertex 135.15639 -100.25127 -26.59113
 endloop
endfacet
facet normal 0.70710677 0.70710677 -8.592628e-08
 outer loop
  vertex 60.156384 -25.25126 26.98455
  vertex 135.15639 -100.25127 -26.59113
  vertex 60.15638 -25.25126 -26.591133
 endloop
endfacet
facet normal -0.03625072 0.70664215 0.706642
 outer loop
  vertex 120.65892 -135.25125 64.86827
  vertex 160.40764 -133.21214 64.86827
  vertex 160.40764 -95.32843 26.98455
 endloop
endfacet
facet normal -0.1469826 0.7539341 0.64029634
 outer loop
  vertex 120.65892 -135.25125 64.86827
  vertex 160.40764 -95.32843 26.98455
  vertex 135.15639 -100.25127 26.98455
 endloop
endfacet
facet normal 1.44582195e-08 4.2721229e-07 1
 outer loop
  vertex 100.1564 -184.74872 64.86829
  vertex 160.40764 -186.78781 64.86829
  vertex 160.40764 -133.21214 64.86827
 endloop
endfacet
facet normal -2.4236694e-08 4.724504e-07 1
 outer loop
  vertex 100.1564 -184.74872 64.86829
  vertex 160.40764 -133.21214 64.86827
  vertex 120.65892 -135.25125 64.86827
 endloop
endfacet
facet normal -0.04651873 -0.7063408 0.70634174
 outer loop
  vertex 85.65891 -219.74872 26.984583
  vertex 160.40764 -224.67157 26.98459
  vertex 160.40764 -186.78781 64.86829
 endloop
endfacet
facet normal -0.024690565 -0.7295582 0.6834729
 outer loop
  vertex 85.65891 -219.74872 26.984583
  vertex 160.40764 -186.78781 64.86829
  vertex 100.1564 -184.74872 64.86829
 endloop
endfacet
facet normal -0.06571589 -0.9978384 -0
 outer loop
  vertex 85.658905 -219.74875 -26.591099
  vertex 160.40764 -224.67157 -26.5911
  vertex 160.40764 -224.67157 26.98459
 endloop
endfacet
facet normal -0.065716304 -0.9978384 5.778995e-07
 outer loop
  vertex 85.658905 -219.74875 -26.591099
  vertex 160.40764 -224.67157 26.98459
  vertex 85.65891 -219.74872 26.984583
 endloop
endfacet
facet normal -0.023924243 -0.70690465 -0.7069041
 outer loop
  vertex 100.15637 -184.74875 -64.47483
  vertex 160.40764 -186.78786 -64.474846
  vertex 160.40764 -224.67157 -26.5911
 endloop
endfacet
facet normal -0.047714688 -0.72450554 -0.68761545
 outer loop
  vertex 100.15637 -184.74875 -64.47483
  vertex 160.40764 -224.67157 -26.5911
  vertex 85.658905 -219.74875 -26.591099
 endloop
endfacet
facet normal -3.692706e-07 -2.848081e-07 -1
 outer loop
  vertex 120.658905 -135.25127 -64.474846
  vertex 160.40764 -133.21217 -64.47486
  vertex 160.40764 -186.78786 -64.474846
 endloop
endfacet
facet normal -2.6004028e-07 -2.0056181e-07 -1
 outer loop
  vertex 120.658905 -135.25127 -64.474846
  vertex 160.40764 -186.78786 -64.474846
  vertex 100.15637 -184.74875 -64.47483
 endloop
endfacet
facet normal -0.13656192 0.7004822 -0.7004824
 outer loop
  vertex 135.15639 -100.25127 -26.59113
  vertex 160.40764 -95.32844 -26.591137
  vertex 160.40764 -133.21217 -64.47486
 endloop
endfacet
facet normal -0.03802293 0.74118894 -0.6702187
 outer loop
  vertex 135.15639 -100.25127 -26.59113
  vertex 160.40764 -133.21217 -64.47486
  vertex 120.658905 -135.25127 -64.474846
 endloop
endfacet
facet normal -0.1913517 0.98152155 -1.3977264e-07
 outer loop
  vertex 135.15639 -100.25127 26.98455
  vertex 160.40764 -95.32843 26.98455
  vertex 160.40764 -95.32844 -26.591137
 endloop
endfacet
facet normal -0.19135141 0.98152155 0
 outer loop
  vertex 135.15639 -100.25127 26.98455
  vertex 160.40764 -95.32844 -26.591137
  vertex 135.15639 -100.25127 -26.59113
 endloop
endfacet
endsolid
